<svg xmlns="http://www.w3.org/2000/svg" width="64" height="64" enable-background="new 0 0 64 64" viewBox="0 0 64 64"><path fill="#343433" d="M12.004,23.77c0.731,1.781,1.698,3.424,2.855,4.896c2.521,3.206,6.072,5.747,10.005,6.897   c4.511,1.319,6.795,0.708,11.436,0.71c4.765,0.002,9.531,0.007,14.296,0.018c0.357,0.002,0.801,0.185,1.054,0.436   c0.077,0.077,0.153,0.151,0.23,0.228c2.3,2.271,6.434,6.395,8.536,8.484c0.479,0.477,1.295,0.136,1.295-0.54   c0,0,0.002-25.449,0-32.395v-0.35C61.673,5.606,56.231,1.358,50.815,1.437C40.102,1.59,32.239,1.477,21.523,1.484   c-2.481,0-4.783,0.826-6.623,2.221c-2.501,1.894-4.156,4.835-4.26,8.187C10.519,15.904,10.42,19.91,12.004,23.77z M46.178,19.416   c0-2.678,2.171-4.849,4.849-4.849c2.678,0,4.849,2.171,4.849,4.849s-2.171,4.849-4.849,4.849   C48.349,24.265,46.178,22.094,46.178,19.416z M31.245,19.416c0-2.678,2.171-4.849,4.849-4.849s4.849,2.171,4.849,4.849   s-2.171,4.849-4.849,4.849S31.245,22.094,31.245,19.416z M16.973,19.416c0-2.678,2.171-4.849,4.849-4.849s4.849,2.171,4.849,4.849   s-2.171,4.849-4.849,4.849S16.973,22.094,16.973,19.416z"/><path fill="#343433" d="M42.638,40.086c-0.143,0.865-0.371,1.712-0.713,2.539c-0.504,1.236-1.189,2.396-2.016,3.452   c-1.835,2.339-4.326,4.06-7.018,4.85c-1.797,0.523-3.052,0.599-4.146,0.599c-0.561,0-1.16-0.019-1.797-0.048   c-0.761-0.028-1.617-0.067-2.624-0.067c-3.784,0.009-7.569,0.009-11.363,0.019c-0.77,0-1.588,0.342-2.139,0.884l-0.171,0.171   c-1.217,1.198-3.071,3.052-4.669,4.64V34.105C6,31.185,7.731,29.055,9.88,28.066c-0.532-0.922-0.998-1.873-1.398-2.853   c-0.067-0.162-0.124-0.314-0.19-0.475c-3.309,1.559-5.972,4.85-6,9.357v0.276c-0.01,5.525,0,25.74,0,25.74   c0,1.36,1.093,2.453,2.453,2.453c0.647,0,1.255-0.247,1.721-0.713l1.74-1.731c1.674-1.664,3.718-3.699,5.03-5.002   c3.699-0.01,7.398-0.01,11.106-0.01c0.913,0,1.702,0.029,2.463,0.057c0.666,0.029,1.303,0.048,1.94,0.048   c1.303,0,2.929-0.086,5.192-0.742c3.414-0.998,6.561-3.176,8.881-6.114c1.036-1.322,1.883-2.777,2.52-4.336   c0.532-1.303,0.856-2.624,1.036-3.927C45.129,40.086,43.883,40.086,42.638,40.086z"/></svg>