<svg xmlns="http://www.w3.org/2000/svg" width="64" height="64" enable-background="new 0 0 64 64" viewBox="0 0 64 64"><path fill="#343433" d="M52.251 33.736c0 .844-.685 1.529-1.529 1.529H35.585c.199-.993.357-2.005.476-3.057h14.661C51.566 32.208 52.251 32.892 52.251 33.736zM52.251 25.2c0 .844-.685 1.529-1.529 1.529H36.309c-.129-1.052-.516-2.124-1.142-3.057h15.554C51.566 23.671 52.251 24.356 52.251 25.2zM52.251 42.104c0 .844-.685 1.529-1.529 1.529H32.656c.218-.417.437-.844.635-1.28.268-.586.516-1.181.754-1.777h16.676C51.566 40.575 52.251 41.26 52.251 42.104zM52.251 50.472c0 .844-.685 1.529-1.529 1.529H26.125c-.05 0-.109 0-.159-.02 1.102-.933 2.124-1.946 3.057-3.028h21.699C51.566 48.953 52.251 49.628 52.251 50.472zM50.097 9.25c-.089-.298-.228-.586-.407-.844-.387-.566-.973-.973-1.638-1.151-.248-.069-.506-.099-.764-.099H45.57V6.907c-.04-3.315-2.769-6.005-6.085-6.005h-.089c-1.687 0-3.206.675-4.318 1.757-1.102 1.092-1.797 2.591-1.817 4.248v.248h-1.717c-.258 0-.516.03-.764.099-.665.179-1.251.586-1.638 1.151-.179.258-.318.546-.407.844-.05.169-.089.357-.099.546v3.375c.01.199.05.377.099.546.347 1.221 1.439 2.065 2.7 2.114h15.942c1.28-.05 2.372-.893 2.72-2.114.05-.169.089-.347.099-.526V9.776C50.186 9.607 50.146 9.429 50.097 9.25zM42.682 7.156H36.15V6.897c.05-1.717 1.479-3.107 3.196-3.107h.139c1.717 0 3.147 1.39 3.196 3.107V7.156zM15.653 16.842c.318-3.067 1.836-5.36 4.536-6.829 1.052-.566 2.233-.824 3.841-.834h.834v3.891h-.179c-.536.01-.983.02-1.38.05-1.985.129-3.693 1.747-3.901 3.673C18.184 16.474 16.884 16.494 15.653 16.842z"/><path fill="#343433" d="M61.204,55.207c-0.05,2.075-0.903,4.05-2.422,5.549c-1.529,1.509-3.514,2.343-5.608,2.343h-0.04   c-4.457-0.02-8.814-0.03-13.242-0.03h-2.938c-4.427,0-8.785,0.01-13.242,0.03h-0.04c-2.094,0-4.08-0.834-5.608-2.343   c-1.31-1.29-2.124-2.928-2.353-4.685c0.596,0.159,1.221,0.238,1.856,0.238c0.665,0,1.33-0.089,1.955-0.268   c0.06,0.238,0.149,0.467,0.268,0.695c0.893,1.658,2.174,2.462,3.911,2.462h29.441c1.737,0,3.018-0.804,3.911-2.462   c0.506-0.963,0.506-2.075,0.506-3.157c0-4.725,0-4.447,0-9.182v-21.55c0-1.817,0.01-3.871-0.099-5.837   c-0.099-2.015-1.856-3.762-3.921-3.891c-0.397-0.03-0.844-0.04-1.38-0.05h-0.179V9.179h0.834c1.608,0.01,2.789,0.268,3.841,0.834   c3.057,1.658,4.596,4.378,4.596,8.07c-0.01,4.963-0.01,10.006-0.01,14.889v1.618c0.01,3.157,0.01,6.303,0.01,9.45   c-0.01,1.34,0,2.71,0,4.03l0.01,0.566C61.274,52.427,61.284,51.325,61.204,55.207z"/><path fill="#343433" d="M18.559,53.335c-0.609,0-1.184-0.117-1.709-0.347l-0.034-0.015c-4.353-2.023-7.763-4.935-10.135-8.653   c-1.593-2.492-2.691-5.321-3.354-8.648l-0.003-0.015c-0.365-1.924-0.557-3.912-0.585-6.078l0-0.022v-0.596   c-0.013-0.449-0.013-0.902,0-1.35c0.011-1.753,1.031-3.864,3.879-4.086c2.972-0.214,5.519-0.913,7.797-2.14l0.019-0.01   c0.493-0.257,1.012-0.584,1.562-0.93l0.1-0.063l0.301-0.205c0.693-0.427,1.466-0.653,2.234-0.653c0.855,0,1.69,0.275,2.414,0.797   c2.14,1.496,4.321,2.436,6.667,2.876c0.544,0.094,1.134,0.157,1.759,0.222l0.26,0.028c0.169,0.014,0.335,0.031,0.501,0.049   c0.145,0.015,0.29,0.031,0.438,0.043l0.02,0.002c2.423,0.226,3.691,2.199,3.691,4.031l0,0.028   c-0.086,5.189-1.004,9.607-2.805,13.507c-2.287,4.921-5.977,8.859-10.97,11.709C20.032,53.147,19.301,53.335,18.559,53.335z    M18.228,49.877c0.088,0.036,0.205,0.056,0.331,0.056c0.19,0,0.319-0.05,0.349-0.067c4.38-2.5,7.6-5.927,9.581-10.191   c1.595-3.453,2.41-7.418,2.49-12.116c-0.004-0.381-0.205-0.594-0.599-0.633c-0.171-0.014-0.339-0.032-0.507-0.05   c-0.146-0.015-0.291-0.031-0.44-0.043L29.114,26.8c-0.687-0.072-1.337-0.141-1.997-0.256l-0.02-0.004   c-2.84-0.53-5.461-1.656-8.013-3.441l-0.024-0.017c-0.281-0.204-0.539-0.209-0.848-0.029l-0.406,0.27   c-0.579,0.364-1.178,0.741-1.788,1.06c-2.707,1.456-5.699,2.284-9.146,2.531c-0.503,0.039-0.732,0.153-0.732,0.723L6.14,27.691   c-0.012,0.395-0.012,0.795,0,1.191l0.001,0.052v0.61c0.026,1.959,0.198,3.748,0.524,5.47c0.579,2.901,1.523,5.347,2.884,7.475   C11.563,45.647,14.483,48.132,18.228,49.877z"/><path fill="#343433" d="M26.105,31.039c-0.017-0.233-0.189-0.384-0.61-0.384c-0.032,0-0.063,0.002-0.092,0.005   c-0.149,0.018-0.275,0.077-0.368,0.126l-0.118,0.062c-0.109,0.058-0.219,0.116-0.327,0.174c-0.269,0.144-0.585,0.32-0.896,0.526   c-2.123,1.408-4.145,3.009-6.1,4.557L17.474,36.2c-0.471,0.373-0.947,0.758-1.408,1.131c-0.131,0.106-0.263,0.212-0.395,0.319   c-0.208-0.173-0.415-0.346-0.622-0.519c-0.6-0.502-1.22-1.022-1.85-1.514c-0.387-0.302-0.834-0.509-1.18-0.655   c-0.341-0.144-0.672-0.079-0.862,0.156c-0.142,0.176-0.187,0.427-0.127,0.705c0.051,0.234,0.117,0.509,0.226,0.774   c0.612,1.493,1.467,2.999,2.689,4.74c0.387,0.551,0.975,0.866,1.614,0.866c0.529,0,1.043-0.218,1.446-0.614   c0.383-0.376,0.778-0.773,1.173-1.181c1.432-1.478,2.855-2.966,4.222-4.506c0.731-0.824,1.452-1.656,2.18-2.482   C24.774,33.2,26.156,31.746,26.105,31.039z"/></svg>