<svg xmlns="http://www.w3.org/2000/svg" width="64" height="64" enable-background="new 0 0 64 64" viewBox="0 0 64 64"><path fill="#343433" d="M17.11 33.1h-6.338c-.757 0-1.376-.619-1.376-1.376v-4.18c0-.757.619-1.376 1.376-1.376h6.338c.757 0 1.376.619 1.376 1.376v4.18C18.486 32.48 17.867 33.1 17.11 33.1zM30.477 33.1H24.14c-.757 0-1.376-.619-1.376-1.376v-4.18c0-.757.619-1.376 1.376-1.376h6.338c.757 0 1.376.619 1.376 1.376v4.18C31.853 32.48 31.234 33.1 30.477 33.1zM45.221 27.542v2.942c-.72.108-1.447.259-2.176.452-1.758.469-3.403 1.202-4.89 2.163h-.649c-.757 0-1.376-.619-1.376-1.376v-4.181c0-.757.619-1.376 1.376-1.376h6.338C44.602 26.166 45.221 26.785 45.221 27.542zM17.11 45.083h-6.338c-.757 0-1.376-.619-1.376-1.376v-4.18c0-.757.619-1.376 1.376-1.376h6.338c.757 0 1.376.619 1.376 1.376v4.18C18.486 44.464 17.867 45.083 17.11 45.083zM31.854 39.526v1.035c-.62 1.438-1.04 2.957-1.248 4.516-.042.004-.085.006-.128.006H24.14c-.757 0-1.376-.619-1.376-1.376v-4.181c0-.757.619-1.376 1.376-1.376h6.338C31.235 38.149 31.854 38.769 31.854 39.526zM37.572 9.326c.001.104.001.209.002.313.006.584.277 1.054.729 1.409.635.499 1.347.579 2.074.255.847-.378 1.183-1.102 1.187-1.992.009-1.9.009-3.801-.005-5.701-.002-.302-.057-.618-.159-.902-.304-.846-1.216-1.394-2.066-1.278-.981.133-1.719.87-1.754 1.842-.026.726-.02 1.454-.014 2.182C32.348 5.47 20.562 5.493 20.351 5.51c0 .24.001.425 0 .611-.005 1.068.012 2.138-.012 3.205C25.439 9.325 32.28 9.325 37.572 9.326z"/><path fill="#343433" d="M53.597,31.357c0-6.554-0.001-13.107-0.001-19.662c0-0.154-0.003-0.308-0.011-0.462     c-0.149-2.782-2.109-5.105-4.84-5.617c-0.881-0.165-1.803-0.125-2.708-0.149c-0.816-0.023-0.606-0.005-1.489-0.005v0.613     c-0.001,1.061,0.01,2.122-0.003,3.183c0,0.023-0.001,0.045-0.002,0.068h2.692c1.521,0,2.354,0.833,2.354,2.354v3.905H5.028     v-3.903C5.029,10.16,5.86,9.327,7.381,9.327h5.679c0.006,0.272,0.045,0.553,0.127,0.811c0.289,0.914,1.172,1.439,2.176,1.326     c0.891-0.101,1.64-0.86,1.674-1.795c0.04-1.077,0.009-2.156,0.009-3.235c0-1.061,0.026-2.123-0.008-3.183     c-0.028-0.845-0.612-1.516-1.423-1.745c-1.358-0.383-2.547,0.592-2.559,2.125c-0.005,0.611-0.006,1.221-0.007,1.832     c-0.859-0.001-3.364-0.011-3.984,0.002C8.054,5.486,7.026,5.409,6.042,5.578C3.011,6.1,1.024,8.578,1.023,11.727     c-0.004,11.998-0.005,23.997,0,35.996c0.002,3.617,2.638,6.258,6.25,6.26c8.155,0.003,16.31,0.004,24.465,0.002     c-0.466-1.127-0.811-2.306-1.022-3.516c-0.029-0.163-0.054-0.326-0.078-0.489c-7.752,0-15.505-0.001-23.257-0.002     c-1.52,0-2.351-0.833-2.352-2.356c-0.001-5.99-0.001-11.979-0.001-17.969c0-3.593,0-7.185,0.001-10.779h44.561     c0.001,3.592,0.002,7.185,0.001,10.779v0.729C50.972,30.53,52.309,30.857,53.597,31.357z"/><path fill="#343433" d="M61.507,42.396l-0.33,0.38c-0.63,0.72-1.25,1.44-1.89,2.15c-0.01,0.01-0.01,0.01-0.02,0.02   c0.2,0.85,0.3,1.75,0.3,2.66c0,6.67-5.43,12.1-12.1,12.1c-6.67,0-12.1-5.43-12.1-12.1c0-6.68,5.43-12.1,12.1-12.1   c2.41,0,4.67,0.71,6.56,1.94c0.81-0.61,1.63-1.2,2.47-1.78c-2.52-1.91-5.64-3.04-9.03-3.04c-8.26,0-14.98,6.72-14.98,14.98   s6.72,14.98,14.98,14.98s14.98-6.72,14.98-14.98C62.447,45.776,62.117,44.016,61.507,42.396z"/><path fill="#343433" d="M62.978,35.969c-0.025-0.349-0.284-0.576-0.916-0.576c-0.048,0-0.095,0.003-0.137,0.008   c-0.224,0.027-0.413,0.115-0.553,0.189l-0.177,0.093c-0.164,0.087-0.328,0.173-0.491,0.261c-0.403,0.217-0.878,0.48-1.344,0.789   c-3.184,2.112-6.217,4.513-9.151,6.835l-0.178,0.141c-0.707,0.559-1.421,1.137-2.112,1.696c-0.197,0.159-0.394,0.319-0.592,0.478   c-0.312-0.259-0.622-0.519-0.933-0.779c-0.9-0.754-1.831-1.533-2.775-2.271c-0.58-0.454-1.251-0.763-1.77-0.983   c-0.512-0.216-1.008-0.118-1.294,0.235c-0.213,0.264-0.281,0.64-0.191,1.058c0.076,0.351,0.176,0.763,0.339,1.162   c0.918,2.239,2.2,4.499,4.034,7.11c0.58,0.826,1.463,1.3,2.422,1.3c0.794,0,1.564-0.327,2.169-0.921   c0.575-0.564,1.166-1.16,1.759-1.772c2.148-2.218,4.283-4.45,6.333-6.759c1.097-1.236,2.178-2.485,3.27-3.724   C60.981,39.211,63.056,37.03,62.978,35.969z"/></svg>